<?xml version="1.0" standalone="no"?>
<!DOCTYPE svg PUBLIC "-//W3C//DTD SVG 20010904//EN"
 "http://www.w3.org/TR/2001/REC-SVG-20010904/DTD/svg10.dtd">
<svg version="1.0" xmlns="http://www.w3.org/2000/svg"
 width="700.000000pt" height="700.000000pt" viewBox="0 0 700.000000 700.000000"
 preserveAspectRatio="xMidYMid meet">
<metadata>
Created by potrace 1.14, written by Peter Selinger 2001-2017
</metadata>
<g transform="translate(0.000000,700.000000) scale(0.100000,-0.100000)"
fill="#000000" stroke="none">
<path d="M560 3465 l0 -1086 638 4 c706 5 708 5 912 73 291 97 498 277 621
538 132 282 132 660 0 942 -144 307 -411 502 -801 587 -89 19 -135 20 -732 24
l-638 4 0 -1086z m1161 501 c235 -50 379 -240 379 -501 0 -264 -141 -450 -378
-501 -44 -9 -132 -14 -254 -14 l-188 0 0 515 0 515 188 0 c122 0 210 -5 253
-14z"/>
<path d="M2906 4443 c19 -60 173 -547 343 -1083 l308 -975 389 -3 389 -2 180
570 c98 313 182 570 185 570 3 0 83 -255 176 -567 l169 -568 390 0 389 0 343
1080 c188 594 342 1081 343 1083 0 1 -155 2 -344 2 -320 0 -345 -1 -350 -17
-25 -88 -380 -1201 -385 -1210 -4 -7 -90 265 -191 605 l-185 617 -335 0 -334
0 -195 -608 c-107 -334 -198 -604 -202 -600 -5 6 -291 942 -365 1196 -5 16
-32 17 -379 17 l-373 0 34 -107z"/>
</g>
</svg>
