<?xml version="1.0" standalone="no"?>
<!DOCTYPE svg PUBLIC "-//W3C//DTD SVG 20010904//EN"
 "http://www.w3.org/TR/2001/REC-SVG-20010904/DTD/svg10.dtd">
<svg version="1.0" xmlns="http://www.w3.org/2000/svg"
 width="1600.000000pt" height="1600.000000pt" viewBox="0 0 1600.000000 1600.000000"
 preserveAspectRatio="xMidYMid meet">
<metadata>
Created by potrace 1.14, written by Peter Selinger 2001-2017
</metadata>
<g transform="translate(0.000000,1600.000000) scale(0.100000,-0.100000)"
fill="#000000" stroke="none">
<path d="M1210 8055 l0 -2506 1433 4 c1549 3 1476 1 1767 58 478 93 855 254
1197 510 111 84 302 270 385 374 271 343 436 737 495 1190 20 150 23 566 4
710 -89 712 -440 1294 -1003 1668 -424 282 -932 444 -1530 486 -91 7 -637 11
-1447 11 l-1301 0 0 -2505z m2705 1161 c325 -77 553 -228 711 -471 138 -213
202 -514 174 -828 -41 -477 -274 -810 -675 -966 -198 -78 -317 -91 -832 -91
l-393 0 0 1191 0 1190 473 -4 c395 -3 483 -7 542 -21z"/>
<path d="M6625 10518 c7 -24 62 -194 120 -378 59 -184 128 -402 155 -485 27
-82 99 -307 160 -500 62 -192 151 -474 200 -625 49 -151 139 -432 200 -625 61
-192 136 -424 165 -515 29 -91 102 -316 160 -500 59 -184 135 -423 170 -530
34 -107 107 -333 161 -502 l98 -308 907 0 907 0 11 33 c33 107 209 664 246
777 24 74 132 414 240 755 108 341 223 701 255 800 32 99 66 206 75 238 9 31
20 57 24 57 4 0 39 -107 78 -237 81 -271 226 -750 348 -1153 136 -447 367
-1213 374 -1240 l7 -25 909 0 909 0 37 115 c20 63 80 252 134 420 54 168 122
379 150 470 29 91 87 273 130 405 65 203 210 657 631 1970 37 116 95 298 129
405 34 107 106 332 160 500 144 449 225 704 225 713 0 4 -359 7 -799 7 -752 0
-799 -1 -804 -17 -2 -10 -39 -126 -81 -258 -43 -132 -151 -469 -241 -750 -90
-280 -198 -618 -241 -750 -102 -319 -185 -581 -274 -860 -40 -126 -75 -233
-79 -238 -4 -4 -47 124 -96 285 -48 161 -114 379 -146 483 -69 231 -191 633
-306 1010 -93 307 -221 731 -287 950 l-42 140 -778 0 -778 0 -63 -195 c-35
-107 -188 -580 -340 -1050 -483 -1492 -517 -1592 -524 -1584 -4 5 -14 34 -23
64 -9 30 -45 150 -81 265 -36 116 -104 338 -152 495 -106 347 -227 741 -305
995 -32 105 -100 325 -150 490 -51 165 -107 351 -126 413 l-35 112 -869 0
-869 0 14 -42z"/>
</g>
</svg>
